<svg width="628" height="207" viewBox="0 0 628 207" fill="none" xmlns="http://www.w3.org/2000/svg">
<path d="M43.4606 105.444L45.3933 67.065C45.5774 63.0155 45.7615 59.8863 46.9579 57.9535C47.9703 56.2049 48.9827 55.3766 51.5597 54.3642L51.3756 52.0633C47.7862 52.2474 46.0376 52.3394 43.7367 52.3394C41.4358 52.3394 38.3066 52.2474 34.9934 52.0633L34.8093 54.3642C37.8464 56.0208 38.2146 57.1252 38.2146 58.9659C38.2146 60.9907 35.4535 65.6845 31.1279 72.219L9.22356 105.444L11.1563 67.065C11.3404 63.0155 11.5244 59.8863 12.7209 57.9535C13.7333 56.2049 14.7457 55.3766 17.3226 54.3642L17.1386 52.0633C13.5492 52.2474 11.8005 52.3394 9.49966 52.3394C7.19879 52.3394 4.0696 52.2474 0.756336 52.0633L0.572266 54.3642C3.97756 56.2049 3.97756 57.1252 3.97756 61.5429C3.97756 63.5677 3.79349 68.2615 3.60942 72.219L1.12448 117.868L5.35809 118.697L38.0305 69.8261L35.3615 117.868L39.7792 118.697L70.7029 72.311C79.9985 58.4137 82.0232 56.1128 84.6923 54.3642L84.5082 52.0633C80.2746 52.3394 79.3542 52.3394 77.0534 52.3394C74.8445 52.3394 72.9118 52.2474 69.5985 52.0633L69.2304 54.3642C71.8994 55.2845 72.8197 56.573 72.8197 57.8615C72.8197 59.6102 71.8994 61.911 65.1808 72.219L43.4606 105.444Z" fill="white"/>
<path d="M97.0019 81.6065C97.0019 78.3853 95.1612 74.7959 90.3754 74.7959C80.6197 74.7959 68.1029 92.0985 68.1029 108.113C68.1029 114.555 71.5082 118.236 76.6622 118.236C81.6321 118.236 87.2462 112.714 91.2037 103.971L89.271 102.775C84.3011 109.677 81.448 112.254 78.0427 112.254C75.7418 112.254 73.9932 110.598 73.9932 105.628C73.9932 103.051 74.3613 100.382 75.0976 97.7127C91.848 94.6755 97.0019 87.3127 97.0019 81.6065ZM88.4427 79.4897C90.0993 79.4897 91.0197 80.7782 91.0197 82.6189C91.0197 86.7605 87.7064 91.5463 75.9259 94.6755C78.687 86.3003 83.8409 79.4897 88.4427 79.4897Z" fill="white"/>
<path d="M114.108 64.9482C115.765 57.9535 116.593 55.2845 118.618 49.0261L117.237 47.5536C113.096 48.4739 109.691 48.8421 105.089 49.2102L104.905 51.5111C108.126 52.4314 109.138 53.7199 109.138 55.7447C109.138 57.7695 108.586 61.4509 107.758 65.0402L98.7384 103.235C97.2658 109.401 96.8977 111.334 96.8977 113.727C96.8977 116.212 98.7384 117.684 101.039 117.684C104.26 117.684 109.046 114.647 115.213 104.247L113.188 102.867C108.218 109.493 105.273 111.242 104.26 111.242C103.524 111.242 103.248 110.782 103.248 110.229C103.248 109.861 103.34 109.217 103.524 108.297L114.108 64.9482Z" fill="white"/>
<path d="M141.156 85.472C143.181 85.472 144.653 83.7233 144.653 81.6065C144.653 77.7411 141.708 74.7959 137.75 74.7959C127.443 74.7959 115.202 92.0985 115.202 108.113C115.202 114.555 118.883 118.236 123.761 118.236C129.007 118.236 134.989 112.714 139.315 103.971L137.382 102.775C132.044 109.677 129.007 112.254 125.418 112.254C123.117 112.254 121.092 110.782 121.092 106.272C121.092 103.235 121.46 99.7374 123.025 94.7675C125.602 86.4844 130.756 79.6738 134.989 79.6738C136.554 79.6738 137.198 80.4101 137.658 82.2508C138.211 84.3676 139.315 85.472 141.156 85.472Z" fill="white"/>
<path d="M166.03 89.2454C166.03 98.0808 163.637 105.628 160.692 109.861C158.575 112.898 156.458 114.187 153.789 114.187C150.476 114.187 148.175 110.874 148.175 104.155C148.175 95.5959 150.752 87.2207 154.249 82.5269C156.366 79.7658 158.575 78.8455 160.415 78.8455C163.637 78.8455 166.03 82.0667 166.03 89.2454ZM153.881 118.236C156.826 118.236 160.6 116.58 163.453 113.911C168.515 109.217 172.564 100.75 172.564 91.3622C172.564 81.1464 167.41 74.7959 160.323 74.7959C157.746 74.7959 154.525 76.0844 151.948 78.3853C146.426 83.3552 141.732 92.0985 141.732 102.867C141.732 112.07 146.886 118.236 153.881 118.236Z" fill="white"/>
<path d="M174.925 115.107C175.385 116.304 176.397 117.5 178.054 117.5C179.342 117.5 179.987 117.408 180.907 116.856L186.245 98.8171C189.742 86.8525 195.633 80.7782 199.314 80.7782C200.879 80.7782 201.799 82.2508 201.799 83.9995C201.799 86.6685 201.247 89.0614 199.498 94.0313L192.043 115.291C192.411 116.58 193.792 117.5 195.356 117.5C196.369 117.5 197.105 117.224 197.841 116.856L203.087 100.474C207.597 86.3003 213.487 80.6862 217.169 80.6862C218.641 80.6862 219.562 81.7906 219.562 83.7233C219.562 85.564 218.733 87.6808 217.353 91.5463L213.027 103.327C210.358 110.506 210.174 111.702 210.174 113.727C210.174 116.028 211.923 117.684 213.948 117.684C217.445 117.684 221.126 115.752 227.201 108.021L225.452 106.272C220.758 111.058 218.825 112.254 217.445 112.254C216.893 112.254 216.34 111.702 216.34 111.242C216.34 110.874 216.34 110.045 216.709 109.125L223.335 91.9145C225.728 85.6561 225.728 84.3676 225.728 82.4349C225.728 77.8331 223.243 74.7959 219.746 74.7959C215.88 74.7959 212.383 77.557 207.413 85.38C207.505 84.4596 207.597 83.4472 207.597 82.711C207.597 78.2012 205.204 74.7959 201.431 74.7959C197.565 74.7959 193.7 78.2933 189.098 86.6685C189.926 83.3552 189.926 82.0667 189.926 80.9623C189.926 77.649 188.362 74.7959 185.233 74.7959C182.748 74.7959 179.25 76.8207 175.385 85.564L177.41 86.7605C179.803 82.6189 181.459 80.5021 183.024 80.5021C183.76 80.5021 184.496 81.0543 184.496 82.6189C184.496 84.1835 183.944 86.6685 182.932 90.1658L180.447 99.0932C178.79 104.891 177.041 109.585 174.925 115.107Z" fill="white"/>
<path d="M257.452 81.6065C257.452 78.3853 255.611 74.7959 250.825 74.7959C241.07 74.7959 228.553 92.0985 228.553 108.113C228.553 114.555 231.958 118.236 237.112 118.236C242.082 118.236 247.696 112.714 251.654 103.971L249.721 102.775C244.751 109.677 241.898 112.254 238.493 112.254C236.192 112.254 234.443 110.598 234.443 105.628C234.443 103.051 234.811 100.382 235.548 97.7127C252.298 94.6755 257.452 87.3127 257.452 81.6065ZM248.893 79.4897C250.549 79.4897 251.47 80.7782 251.47 82.6189C251.47 86.7605 248.156 91.5463 236.376 94.6755C239.137 86.3003 244.291 79.4897 248.893 79.4897Z" fill="white"/>
<path d="M277.964 77.9251L277.78 81.5145H284.406L278.792 103.695C277.595 108.297 277.135 110.413 277.135 112.622C277.135 116.028 279.252 117.684 282.105 117.684C285.51 117.684 289.008 115.291 295.174 104.891L293.149 103.419C287.995 110.598 285.695 111.702 284.314 111.702C283.486 111.702 283.026 111.15 283.026 110.413C283.026 109.769 283.21 108.665 283.67 106.732L290.204 81.5145H299.132L300.328 78.1092L299.592 76.6367L291.401 77.0968L293.425 69.3659C292.505 68.1694 291.217 67.7093 290.204 67.7093C289.1 67.7093 288.179 67.9854 287.351 68.5376C286.799 71.2066 286.339 74.0597 285.51 77.557L277.964 77.9251Z" fill="white"/>
<path d="M321.357 89.2454C321.357 98.0808 318.964 105.628 316.019 109.861C313.902 112.898 311.785 114.187 309.116 114.187C305.803 114.187 303.502 110.874 303.502 104.155C303.502 95.5959 306.079 87.2207 309.576 82.5269C311.693 79.7658 313.902 78.8455 315.743 78.8455C318.964 78.8455 321.357 82.0667 321.357 89.2454ZM309.208 118.236C312.153 118.236 315.927 116.58 318.78 113.911C323.842 109.217 327.891 100.75 327.891 91.3622C327.891 81.1464 322.737 74.7959 315.65 74.7959C313.074 74.7959 309.852 76.0844 307.275 78.3853C301.753 83.3552 297.059 92.0985 297.059 102.867C297.059 112.07 302.213 118.236 309.208 118.236Z" fill="white"/>
<path d="M117.824 176.851C117.824 179.888 120.125 182.189 123.162 182.189C126.199 182.189 128.5 179.888 128.5 176.851C128.5 173.814 126.199 171.513 123.162 171.513C120.125 171.513 117.824 173.814 117.824 176.851Z" fill="white"/>
<path d="M137.152 176.851C137.152 179.888 139.452 182.189 142.49 182.189C145.527 182.189 147.828 179.888 147.828 176.851C147.828 173.814 145.527 171.513 142.49 171.513C139.452 171.513 137.152 173.814 137.152 176.851Z" fill="white"/>
<path d="M156.479 176.851C156.479 179.888 158.78 182.189 161.817 182.189C164.854 182.189 167.155 179.888 167.155 176.851C167.155 173.814 164.854 171.513 161.817 171.513C158.78 171.513 156.479 173.814 156.479 176.851Z" fill="white"/>
<path d="M183.025 175.471C183.025 190.104 174.005 201.332 164.065 201.332C159.924 201.332 159.648 199.492 157.071 199.492C155.23 199.492 153.665 200.872 153.665 202.713C153.665 204.83 155.782 206.486 159.372 206.486C164.526 206.486 170.324 204.646 176.674 199.492C182.104 195.074 188.178 187.711 192.596 178.232C198.578 165.439 201.34 154.487 201.34 143.903C201.34 142.522 201.247 140.313 200.879 139.209C200.419 139.025 199.775 139.025 199.315 139.025C198.026 139.025 196.37 139.485 195.541 140.313C195.909 142.154 196.094 144.179 196.094 146.295C196.094 156.143 194.621 165.255 188.731 179.244C188.915 177.403 189.007 176.667 189.007 175.563C189.007 166.175 186.798 155.591 183.485 146.295C181.644 141.049 179.711 139.117 177.226 139.117C173.821 139.117 170.232 143.903 167.747 154.947L170.14 155.683C172.717 147.86 174.281 145.651 175.846 145.651C176.398 145.651 177.042 146.203 177.779 148.228C180.724 156.235 183.025 166.727 183.025 175.471Z" fill="white"/>
<path d="M228.224 153.566C228.224 162.402 225.831 169.948 222.886 174.182C220.769 177.219 218.652 178.508 215.983 178.508C212.67 178.508 210.369 175.194 210.369 168.476C210.369 159.917 212.946 151.541 216.443 146.848C218.56 144.087 220.769 143.166 222.61 143.166C225.831 143.166 228.224 146.388 228.224 153.566ZM216.075 182.557C219.02 182.557 222.794 180.901 225.647 178.232C230.709 173.538 234.758 165.071 234.758 155.683C234.758 145.467 229.604 139.117 222.518 139.117C219.941 139.117 216.719 140.405 214.142 142.706C208.62 147.676 203.927 156.419 203.927 167.187C203.927 176.391 209.081 182.557 216.075 182.557Z" fill="white"/>
<path d="M261.232 163.414C258.655 172.802 258.655 175.379 258.655 177.495C258.655 180.164 259.944 182.005 262.52 182.005C265.742 182.005 269.423 179.336 274.945 170.409L273.012 168.936C268.227 175.194 266.57 176.115 265.558 176.115C265.005 176.115 264.637 175.563 264.637 175.102C264.637 174.642 264.637 173.906 264.729 172.986C264.913 171.329 265.742 167.279 268.503 157.708C270.159 152.002 271.172 149.609 273.841 142.246C273.012 140.589 271.54 139.761 270.159 139.761C269.423 139.761 268.687 139.945 268.135 140.221L266.846 143.903C258.103 168.752 250.004 176.115 246.69 176.115C244.942 176.115 244.206 175.194 244.206 173.722C244.206 172.433 244.482 171.237 245.402 168.844L250.924 154.118C253.225 148.044 253.685 146.203 253.685 144.087C253.685 141.142 251.752 139.117 249.544 139.117C245.77 139.117 242.273 142.706 237.119 150.437L238.96 152.002C243.193 146.756 244.85 144.915 246.414 144.915C247.243 144.915 247.611 145.651 247.611 146.48C247.611 147.584 247.151 149.057 246.138 151.726L240.616 166.083C238.96 170.409 238.131 173.262 238.131 175.471C238.131 178.784 240.524 182.005 244.39 182.005C248.899 182.005 253.133 178.968 261.232 163.414Z" fill="white"/>
<path d="M304.9 149.333C306.464 149.333 307.845 147.768 307.845 145.099C307.845 141.694 305.268 139.117 302.231 139.117C298.641 139.117 295.144 142.246 290.818 152.83C291.463 149.425 292.015 145.191 292.015 144.271C292.015 141.142 290.358 139.117 288.241 139.117C285.204 139.117 282.075 140.957 277.473 149.609L279.498 151.081C281.983 147.032 283.824 145.007 285.112 145.007C285.756 145.007 286.309 145.559 286.309 146.388C286.309 147.308 286.125 148.78 285.756 150.621L283.179 163.506C281.983 169.488 280.879 174.182 279.498 179.796C279.958 180.901 281.155 182.005 282.995 182.005C284.284 182.005 285.112 181.637 285.848 181.177L287.321 173.354C291.371 152.002 297.261 145.283 299.746 145.283C300.942 145.283 301.586 146.111 302.047 147.308C302.599 148.596 303.427 149.333 304.9 149.333Z" fill="white"/>
<path d="M330.004 163.414C328.624 169.304 327.151 173.906 325.495 179.428C325.955 180.625 327.059 181.821 328.9 181.821C330.925 181.821 330.833 181.545 331.753 181.177L336.079 163.138C338.932 150.989 346.295 145.099 349.976 145.099C351.725 145.099 352.829 146.203 352.829 147.952C352.829 149.701 352.369 151.726 351.817 153.566L347.307 167.648C345.374 173.722 344.914 176.115 344.914 178.048C344.914 180.164 346.663 182.005 348.964 182.005C352.185 182.005 356.142 179.428 361.572 170.409L359.64 168.936C354.762 175.194 353.013 176.115 352.001 176.115C351.449 176.115 351.172 175.655 351.172 175.194C351.172 174.826 351.265 174.09 351.541 173.17C353.473 166.635 355.498 160.653 357.799 153.658C358.903 150.253 359.18 147.952 359.18 146.388C359.18 141.97 356.326 139.117 352.369 139.117C348.043 139.117 343.718 142.982 338.38 151.265C339.208 147.952 339.484 145.191 339.484 144.271C339.484 141.142 337.827 139.117 335.711 139.117C332.673 139.117 329.544 140.957 324.943 149.609L326.967 151.081C329.452 147.032 331.293 145.007 332.581 145.007C333.226 145.007 333.778 145.559 333.778 146.388C333.778 147.308 333.502 148.872 333.042 150.621L330.004 163.414Z" fill="white"/>
<path d="M391.919 145.927C391.919 142.706 390.078 139.117 385.292 139.117C375.537 139.117 363.02 156.419 363.02 172.433C363.02 178.876 366.425 182.557 371.579 182.557C376.549 182.557 382.163 177.035 386.121 168.292L384.188 167.095C379.218 173.998 376.365 176.575 372.96 176.575C370.659 176.575 368.91 174.918 368.91 169.948C368.91 167.371 369.278 164.702 370.014 162.033C386.765 158.996 391.919 151.634 391.919 145.927ZM383.36 143.811C385.016 143.811 385.937 145.099 385.937 146.94C385.937 151.081 382.623 155.867 370.843 158.996C373.604 150.621 378.758 143.811 383.36 143.811Z" fill="white"/>
<path d="M394.83 156.511C396.763 156.511 397.591 155.039 397.591 153.474C397.591 150.897 395.382 150.069 395.382 148.136C395.382 146.295 396.027 144.639 400.72 144.639C403.113 144.639 406.335 144.915 410.568 145.467C402.377 156.511 398.143 163.598 398.143 170.961C398.143 177.863 402.009 182.005 407.991 182.005C413.237 182.005 416.09 178.416 418.575 173.262C419.864 178.416 422.441 182.005 427.226 182.005C435.602 182.005 440.664 169.672 440.664 157.616C440.664 145.835 436.706 139.577 433.301 139.577C431.552 139.577 430.264 140.865 430.264 142.706C430.264 144.639 431.184 145.743 432.749 147.308C434.865 149.517 436.798 152.83 436.798 159.549C436.798 168.568 433.209 175.563 427.871 175.563C424.834 175.563 422.441 173.538 421.336 169.212C424.097 162.402 425.386 157.708 425.386 154.118C425.386 151.173 424.281 150.069 423.177 150.069C421.98 150.069 421.06 151.173 420.508 152.37C418.207 157.432 418.023 163.598 418.023 168.936C415.538 173.262 412.593 175.563 409.648 175.563C406.611 175.563 404.402 172.986 404.402 169.028C404.402 162.125 407.439 155.959 416.366 141.326L415.354 139.669C412.225 139.393 408.727 139.301 405.322 139.301C396.395 139.301 391.057 144.547 391.057 151.357C391.057 154.579 392.529 156.511 394.83 156.511Z" fill="white"/>
<path d="M464.355 179.428C464.816 180.625 465.828 181.821 467.485 181.821C468.773 181.821 469.417 181.729 470.338 181.177L475.676 163.138C479.173 151.173 485.063 145.099 488.745 145.099C490.309 145.099 491.23 146.572 491.23 148.32C491.23 150.989 490.677 153.382 488.929 158.352L481.474 179.612C481.842 180.901 483.223 181.821 484.787 181.821C485.8 181.821 486.536 181.545 487.272 181.177L492.518 164.795C497.028 150.621 502.918 145.007 506.599 145.007C508.072 145.007 508.992 146.111 508.992 148.044C508.992 149.885 508.164 152.002 506.784 155.867L502.458 167.648C499.789 174.826 499.605 176.023 499.605 178.048C499.605 180.348 501.353 182.005 503.378 182.005C506.876 182.005 510.557 180.072 516.631 172.341L514.883 170.593C510.189 175.379 508.256 176.575 506.876 176.575C506.323 176.575 505.771 176.023 505.771 175.563C505.771 175.194 505.771 174.366 506.139 173.446L512.766 156.235C515.159 149.977 515.159 148.688 515.159 146.756C515.159 142.154 512.674 139.117 509.176 139.117C505.311 139.117 501.814 141.878 496.844 149.701C496.936 148.78 497.028 147.768 497.028 147.032C497.028 142.522 494.635 139.117 490.861 139.117C486.996 139.117 483.131 142.614 478.529 150.989C479.357 147.676 479.357 146.388 479.357 145.283C479.357 141.97 477.792 139.117 474.663 139.117C472.178 139.117 468.681 141.142 464.816 149.885L466.84 151.081C469.233 146.94 470.89 144.823 472.454 144.823C473.191 144.823 473.927 145.375 473.927 146.94C473.927 148.504 473.375 150.989 472.362 154.487L469.877 163.414C468.221 169.212 466.472 173.906 464.355 179.428Z" fill="white"/>
<path d="M522.033 167.648C519.824 173.63 519.18 175.655 519.18 177.771C519.18 180.164 521.021 182.005 523.138 182.005C526.359 182.005 530.593 179.428 535.47 169.948L533.63 168.66C529.12 175.102 527.279 176.115 526.267 176.115C525.715 176.115 525.347 175.655 525.347 175.194C525.347 174.826 525.531 174.09 526.543 171.329L532.525 154.395C533.906 150.621 535.378 146.572 535.378 143.626C535.378 140.865 533.63 139.117 531.697 139.117C528.66 139.117 524.886 142.614 519.64 150.253L521.389 151.818C525.623 146.848 527.463 145.375 528.384 145.375C528.844 145.375 529.12 145.651 529.12 146.203C529.12 147.124 528.844 148.872 527.555 152.37L522.033 167.648ZM529.764 118.685C529.764 121.446 531.881 123.563 534.642 123.563C537.403 123.563 539.52 121.446 539.52 118.685C539.52 115.924 537.403 113.807 534.642 113.807C531.881 113.807 529.764 115.924 529.764 118.685Z" fill="white"/>
<path d="M544.295 163.414C542.914 169.304 541.442 173.906 539.785 179.428C540.245 180.625 541.35 181.821 543.191 181.821C545.215 181.821 545.123 181.545 546.044 181.177L550.369 163.138C553.222 150.989 560.585 145.099 564.267 145.099C566.015 145.099 567.12 146.203 567.12 147.952C567.12 149.701 566.659 151.726 566.107 153.566L561.598 167.648C559.665 173.722 559.205 176.115 559.205 178.048C559.205 180.164 560.953 182.005 563.254 182.005C566.475 182.005 570.433 179.428 575.863 170.409L573.93 168.936C569.052 175.194 567.304 176.115 566.291 176.115C565.739 176.115 565.463 175.655 565.463 175.194C565.463 174.826 565.555 174.09 565.831 173.17C567.764 166.635 569.789 160.653 572.09 153.658C573.194 150.253 573.47 147.952 573.47 146.388C573.47 141.97 570.617 139.117 566.659 139.117C562.334 139.117 558.008 142.982 552.67 151.265C553.498 147.952 553.775 145.191 553.775 144.271C553.775 141.142 552.118 139.117 550.001 139.117C546.964 139.117 543.835 140.957 539.233 149.609L541.258 151.081C543.743 147.032 545.583 145.007 546.872 145.007C547.516 145.007 548.068 145.559 548.068 146.388C548.068 147.308 547.792 148.872 547.332 150.621L544.295 163.414Z" fill="white"/>
<path d="M615.873 129.269C617.714 122.366 618.634 119.605 620.751 113.347L619.37 111.874C615.229 112.795 611.823 113.163 607.222 113.531L607.038 115.832C610.259 116.752 611.271 118.041 611.271 120.066C611.271 122.09 610.811 125.68 609.799 129.269L606.67 140.865C605.289 140.129 603.632 139.669 601.976 139.669C597.098 139.669 592.22 142.982 587.986 147.952C581.728 155.223 576.758 166.175 576.758 173.722C576.758 178.784 579.243 182.557 584.489 182.557C588.539 182.557 593.785 178.968 600.411 166.451C598.57 173.262 598.11 175.839 598.11 178.048C598.11 180.532 599.951 182.005 602.252 182.005C605.473 182.005 609.891 178.692 616.057 168.568L614.032 167.187C609.062 173.814 606.117 175.563 605.105 175.563C604.369 175.563 604.093 175.102 604.093 174.55C604.093 174.182 604.185 172.894 605.565 167.924L615.873 129.269ZM582.556 171.973C582.556 165.439 585.778 156.88 590.84 150.437C593.877 146.572 597.19 145.007 600.411 145.007C601.792 145.007 603.448 145.651 605.013 147.124C604.185 150.621 603.816 152.462 602.804 155.039C596.546 171.421 589.367 176.667 586.146 176.667C583.753 176.667 582.556 174.918 582.556 171.973Z" fill="white"/>
<path d="M616.974 176.851C616.974 179.888 619.275 182.189 622.312 182.189C625.349 182.189 627.65 179.888 627.65 176.851C627.65 173.814 625.349 171.513 622.312 171.513C619.275 171.513 616.974 173.814 616.974 176.851Z" fill="white"/>
<g clip-path="url(#clip0_3627_224)">
<path d="M384.765 84.393V84.1046L352.725 67.1849L353.013 75.382L384.746 93.404L416.787 76.7727V68.3834L384.765 84.393ZM381.19 78.5929V71.543L358.761 61.9296L358.857 66.7748L381.19 78.5929ZM399.017 48.6887L397.037 66.9029L403.445 70.3061L409.34 67.1016L404.073 64.224L407.213 47.5607L399.017 48.6887ZM385.445 65.6084V61.4361L371.987 62.6346L364.746 56.8665L359.235 59.0199L381.164 68.1271L385.445 65.6084ZM388.296 58.1291L387.425 72.8697L392.205 75.4333L401.292 71.3508L394.679 67.8579L397.088 49.4001L372.507 53.2839L385.694 48.2978L371.731 32.3394L364.041 52.2777L373.846 60.2825L388.296 58.1291ZM402.926 44.8433L391.622 41.485L384.913 29.8464L395.73 41.062L405.925 44.2024L404.496 26.4881L400.388 37.5115L394.852 31.4743H395.14C396.073 31.4727 397 31.3279 397.889 31.0448C400.888 30.0386 403.202 27.4943 404.297 23.8027C405.396 19.9532 405.311 15.8621 404.054 12.0615C401.978 5.5436 397.146 0.749728 392.026 0.0767879C391.657 0.0385223 391.287 0.0235336 390.917 0.0319205C389.982 0.0334151 389.053 0.178219 388.162 0.46131C385.169 1.46752 382.901 4.05673 381.753 7.70342C380.648 11.5516 380.73 15.6442 381.991 19.4446C383.868 25.3409 388.001 29.8464 392.558 31.1218C389.879 30.718 384.945 28.8466 380.094 20.8674L372.705 25.1358L386.502 46.766L402.926 44.8433ZM402.074 19.9638L399.126 21.1174L393.91 7.74187L402.074 19.9638ZM391.18 15.2212C390.857 15.2199 390.542 15.1229 390.274 14.9426C390.006 14.7623 389.797 14.5066 389.675 14.2078C389.552 13.9091 389.521 13.5807 389.584 13.2641C389.648 12.9475 389.804 12.6569 390.033 12.429C390.262 12.2011 390.553 12.046 390.87 11.9835C391.187 11.921 391.515 11.9537 391.813 12.0776C392.111 12.2015 392.366 12.4109 392.545 12.6796C392.725 12.9482 392.82 13.2639 392.82 13.5868C392.819 14.0209 392.645 14.4366 392.338 14.7429C392.03 15.0492 391.614 15.2212 391.18 15.2212Z" fill="white"/>
<path d="M372.877 104.915V100.217C372.932 99.1732 372.69 98.1352 372.178 97.2238C371.803 96.5778 371.263 96.0425 370.613 95.6722C369.964 95.3019 369.228 95.1098 368.481 95.1153C366.559 95.1153 365.008 96.333 363.822 98.48C363.751 98.0245 363.587 97.5884 363.342 97.1982C362.966 96.5521 362.426 96.0169 361.776 95.6466C361.127 95.2763 360.392 95.0842 359.644 95.0897C357.722 95.0897 356.241 96.3074 355.158 98.2942C355.186 97.3028 355.273 96.3139 355.421 95.3332C354.065 96.2501 352.615 97.0193 351.096 97.6276C352.204 98.4031 352.422 98.9991 352.538 100.512C352.646 101.659 352.646 102.845 352.646 103.985V104.915C352.646 106.055 352.646 107.35 352.538 108.497C352.422 110.016 352.243 110.977 351.352 112.009H351.724C352.723 112.009 353.166 111.862 353.941 111.862C354.716 111.862 355.12 112.009 356.12 112.009H356.53C355.639 110.977 355.421 110.016 355.306 108.497C355.235 107.35 355.235 106.055 355.235 104.915V101.242C355.235 99.0632 356.562 97.4738 358.747 97.4738C360.407 97.4738 361.483 98.7556 361.483 100.678V104.934C361.483 106.075 361.483 107.369 361.368 108.516C361.259 110.035 361.073 110.997 360.189 112.029H360.561C361.554 112.029 361.996 111.881 362.778 111.881C363.56 111.881 363.957 112.029 364.956 112.029H365.36C364.476 110.997 364.252 110.035 364.143 108.516C364.072 107.369 364.072 106.075 364.072 104.934V101.242C364.072 99.0632 365.399 97.4738 367.584 97.4738C369.244 97.4738 370.314 98.7556 370.314 100.678V104.934C370.314 106.075 370.314 107.369 370.205 108.516C370.096 110.035 369.91 110.997 369.026 112.029H369.391C370.391 112.029 370.833 111.881 371.608 111.881C372.384 111.881 372.794 112.029 373.793 112.029H374.197C373.313 110.997 373.088 110.035 372.979 108.516C372.903 107.369 372.903 106.075 372.903 104.934L372.877 104.915ZM399.176 104.934V100.678C399.216 99.5283 398.929 98.3906 398.349 97.3969C397.909 96.6784 397.288 96.0882 396.548 95.6855C395.808 95.2828 394.975 95.0817 394.133 95.1025C391.916 95.1025 390.211 96.5061 389.141 98.5762C389.15 97.4874 389.225 96.4001 389.365 95.3204C388.009 96.2373 386.559 97.0065 385.04 97.6148C386.148 98.3903 386.373 98.9863 386.481 100.499C386.59 101.646 386.59 102.832 386.59 103.972V104.902C386.59 106.043 386.59 107.337 386.481 108.484C386.373 110.003 386.187 110.965 385.296 111.997H385.668C386.667 111.997 387.109 111.849 387.885 111.849C388.66 111.849 389.07 111.997 390.064 111.997H390.474C389.583 110.965 389.365 110.003 389.25 108.484C389.179 107.337 389.179 106.043 389.179 104.902V101.608C389.151 101.058 389.239 100.509 389.438 99.9962C389.637 99.4833 389.941 99.0181 390.332 98.6309C390.723 98.2438 391.191 97.9435 391.705 97.7496C392.22 97.5557 392.77 97.4727 393.319 97.5058C395.28 97.5058 396.523 98.9094 396.523 100.98V104.902C396.523 106.043 396.523 107.337 396.414 108.484C396.299 110.003 396.119 110.965 395.229 111.997H395.6C396.6 111.997 397.042 111.849 397.817 111.849C398.593 111.849 399.003 111.997 399.996 111.997H400.406C399.516 110.965 399.298 110.003 399.182 108.484C399.112 107.337 399.112 106.043 399.112 104.902L399.176 104.934ZM380.958 104.902V102.018C380.958 99.2042 381.073 97.8391 381.143 95.3204C379.788 96.2386 378.338 97.0078 376.818 97.6148C377.927 98.3903 378.151 98.9863 378.26 100.499C378.375 101.646 378.375 102.832 378.375 103.972V104.902C378.375 106.043 378.375 107.337 378.26 108.484C378.151 110.003 377.965 110.965 377.081 111.997H377.446C378.446 111.997 378.888 111.849 379.67 111.849C380.451 111.849 380.849 111.997 381.848 111.997H382.252C381.368 110.965 381.143 110.003 381.035 108.484C380.958 107.337 380.958 106.043 380.958 104.902ZM417.112 107.376C417.003 106.228 417.003 105.197 417.003 104.049V91.161C417.003 88.3475 417.112 86.9823 417.189 84.4636C415.832 85.3781 414.382 86.1471 412.864 86.758C413.972 87.5335 414.19 88.1231 414.306 89.6421C414.415 90.7893 414.414 91.9685 414.414 93.1157V96.3202C413.178 95.4684 411.698 95.041 410.198 95.1025C406.244 95.1025 402.508 98.653 402.508 104.075C402.508 109.497 405.949 112.58 409.679 112.58C411.569 112.58 413.524 111.022 414.523 109.177L414.632 112.381C415.887 111.585 417.198 110.88 418.554 110.272C417.593 109.632 417.221 108.907 417.112 107.388V107.376ZM414.414 105.837C414.414 108.497 412.896 110.202 410.422 110.202C407.5 110.202 405.206 107.683 405.206 103.152C405.206 98.8261 407.577 96.788 409.903 96.788C412.088 96.788 414.389 98.1596 414.389 102.005L414.414 105.837Z" fill="white"/>
<path d="M363.655 21.9507C363.806 22.7968 363.881 23.6548 363.879 24.5143C363.879 28.4686 363.283 32.1281 360.918 37.7488C360.982 37.2577 361.019 36.7635 361.027 36.2683C360.94 32.2549 360.191 28.2835 358.81 24.5143C358.073 22.4058 357.298 21.6303 356.298 21.6303C354.933 21.6303 353.043 23.8093 352.934 28.8724C354.484 25.136 355.112 24.2515 355.747 24.2515C355.965 24.2515 356.228 24.4758 356.522 25.2898C357.814 28.7976 358.524 32.493 358.624 36.2299C358.624 42.1133 355.004 46.6188 351.011 46.6188C349.878 46.5841 348.773 46.2526 347.807 45.6575C347.309 46.3728 346.923 47.1593 346.66 47.9903C347.387 48.4597 348.237 48.7028 349.102 48.6889C351.171 48.6889 353.498 47.9519 356.048 45.8818C358.787 43.5404 360.975 40.6233 362.456 37.3386C364.859 32.2114 365.968 27.8021 365.968 23.553C365.966 22.8825 365.906 22.2135 365.788 21.5533L363.655 21.9507Z" fill="white"/>
<path d="M371.055 12.1576C368.729 14.4135 367.614 15.0736 366.986 15.0736C366.877 15.0674 366.774 15.0239 366.693 14.9504C366.613 14.8768 366.56 14.7777 366.544 14.6699C366.537 14.3789 366.587 14.0894 366.691 13.8175L369.357 6.90862C370.318 4.3899 370.318 3.87718 370.318 3.06324C370.318 1.21746 369.318 -0.000218045 367.915 -0.000218045C366.358 -0.000218045 364.955 1.1085 362.962 4.24888C362.994 3.87716 363.032 3.47341 363.032 3.1786C363.032 1.36486 362.071 -0.0258789 360.559 -0.0258789C359.046 -0.0258789 357.451 1.37768 355.605 4.74239C355.821 3.99671 355.931 3.22432 355.932 2.44797C355.932 1.11491 355.291 -0.0258789 354.048 -0.0258789C352.805 -0.0258789 350.722 1.30079 350.28 5.55634C351.427 3.40934 352.42 2.26212 353.164 2.26212C353.458 2.26212 353.753 2.48645 353.753 3.11453C353.662 4.14706 353.447 5.16485 353.112 6.14595L352.113 9.72857C351.472 12.0614 350.6 14.3174 349.748 16.5349L352.26 17.1245L354.445 9.61959C355.849 4.81288 358.213 2.37106 359.693 2.37106C360.334 2.37106 360.693 2.9671 360.693 3.65286C360.693 4.72956 360.469 5.69093 359.764 7.68411L356.662 16.5605L359.027 17.1117L361.206 10.2733C363.019 4.58217 365.384 2.3262 366.864 2.3262C367.454 2.3262 367.825 2.76843 367.825 3.54391C367.825 4.3194 367.569 5.09487 366.973 6.65224L365.198 11.4205C364.128 14.3045 364.057 14.7852 364.057 15.5992C364.054 15.8116 364.093 16.0226 364.174 16.2192C364.255 16.4158 364.375 16.5939 364.526 16.7426C364.678 16.8914 364.858 17.0076 365.057 17.0843C365.255 17.161 365.466 17.1964 365.679 17.1886C367.383 17.1886 369.639 15.5607 371.042 12.0614" fill="white"/>
</g>
<defs>
<clipPath id="clip0_3627_224">
<rect width="71.8801" height="112.567" fill="white" transform="translate(346.686)"/>
</clipPath>
</defs>
</svg>
